<svg width="26" height="26" viewBox="0 0 26 26" fill="none" xmlns="http://www.w3.org/2000/svg">
<rect width="26" height="26" rx="4" fill="black" fill-opacity="0.48"/>
<path d="M17.5 10H16.75V8.5C16.75 6.43 15.07 4.75 13 4.75C10.93 4.75 9.25 6.43 9.25 8.5H10.75C10.75 7.255 11.755 6.25 13 6.25C14.245 6.25 15.25 7.255 15.25 8.5V10H8.5C7.675 10 7 10.675 7 11.5V19C7 19.825 7.675 20.5 8.5 20.5H17.5C18.325 20.5 19 19.825 19 19V11.5C19 10.675 18.325 10 17.5 10ZM17.5 19H8.5V11.5H17.5V19ZM13 16.75C13.825 16.75 14.5 16.075 14.5 15.25C14.5 14.425 13.825 13.75 13 13.75C12.175 13.75 11.5 14.425 11.5 15.25C11.5 16.075 12.175 16.75 13 16.75Z" fill="white"/>
</svg>
